<?xml version="1.0" encoding="us-ascii" standalone="no"?><svg xmlns="http://www.w3.org/2000/svg" xmlns:xlink="http://www.w3.org/1999/xlink" contentStyleType="text/css" height="242px" preserveAspectRatio="none" style="width:297px;height:242px;background:#FFFFFF;" version="1.1" viewBox="0 0 297 242" width="297px" zoomAndPan="magnify"><defs/><g><!--cluster Makefile--><g id="cluster_Makefile"><rect fill="none" height="87.49" rx="2.5" ry="2.5" style="stroke:#181818;stroke-width:1.0;" width="219" x="72.5" y="68.48"/><text fill="#000000" font-family="sans-serif" font-size="14" font-weight="bold" lengthAdjust="spacing" textLength="62" x="151" y="84.0152">Makefile</text></g><!--entity pandoc--><g id="elem_pandoc"><rect fill="#F1F1F1" height="36.4883" rx="2.5" ry="2.5" style="stroke:#181818;stroke-width:0.5;" width="71" x="205" y="103.48"/><text fill="#000000" font-family="sans-serif" font-size="14" lengthAdjust="spacing" textLength="51" x="215" y="127.0152">pandoc</text></g><!--entity plantuml--><g id="elem_plantuml"><rect fill="#F1F1F1" height="36.4883" rx="2.5" ry="2.5" style="stroke:#181818;stroke-width:0.5;" width="81" x="89" y="103.48"/><text fill="#000000" font-family="sans-serif" font-size="14" lengthAdjust="spacing" textLength="61" x="99" y="127.0152">plantuml</text></g><!--entity puml--><g id="elem_puml"><rect fill="#F1F1F1" height="36.4883" rx="2.5" ry="2.5" style="stroke:#181818;stroke-width:0.5;" width="59" x="100" y="7"/><text fill="#000000" font-family="sans-serif" font-size="14" lengthAdjust="spacing" textLength="39" x="110" y="30.5352">.puml</text></g><!--entity md--><g id="elem_md"><rect fill="#F1F1F1" height="36.4883" rx="2.5" ry="2.5" style="stroke:#181818;stroke-width:0.5;" width="46" x="217.5" y="7"/><text fill="#000000" font-family="sans-serif" font-size="14" lengthAdjust="spacing" textLength="26" x="227.5" y="30.5352">.md</text></g><!--entity svg--><g id="elem_svg"><rect fill="#F1F1F1" height="36.4883" rx="2.5" ry="2.5" style="stroke:#181818;stroke-width:0.5;" width="47" x="7" y="103.48"/><text fill="#000000" font-family="sans-serif" font-size="14" lengthAdjust="spacing" textLength="27" x="17" y="127.0152">.svg</text></g><!--entity pdf--><g id="elem_pdf"><rect fill="#F1F1F1" height="36.4883" rx="2.5" ry="2.5" style="stroke:#181818;stroke-width:0.5;" width="47" x="217" y="199.97"/><text fill="#000000" font-family="sans-serif" font-size="14" lengthAdjust="spacing" textLength="27" x="227" y="223.5052">.pdf</text></g><!--link puml to plantuml--><g id="link_puml_plantuml"><path d="M129.5,43.57 C129.5,60.51 129.5,80.17 129.5,97.19 " fill="none" id="puml-to-plantuml" style="stroke:#181818;stroke-width:1.0;"/><polygon fill="#181818" points="129.5,103.19,133.5,94.19,129.5,98.19,125.5,94.19,129.5,103.19" style="stroke:#181818;stroke-width:1.0;"/></g><!--link plantuml to svg--><g id="link_plantuml_svg"><path d="M88.76,121.73 C77.34,121.73 71.91,121.73 60.48,121.73 " fill="none" id="plantuml-to-svg" style="stroke:#181818;stroke-width:1.0;"/><polygon fill="#181818" points="54.48,121.73,63.48,125.73,59.48,121.73,63.48,117.73,54.48,121.73" style="stroke:#181818;stroke-width:1.0;"/></g><!--link md to pandoc--><g id="link_md_pandoc"><path d="M240.5,43.57 C240.5,60.51 240.5,80.17 240.5,97.19 " fill="none" id="md-to-pandoc" style="stroke:#181818;stroke-width:1.0;"/><polygon fill="#181818" points="240.5,103.19,244.5,94.19,240.5,98.19,236.5,94.19,240.5,103.19" style="stroke:#181818;stroke-width:1.0;"/></g><!--link svg to pandoc--><g id="link_svg_pandoc"><path d="M39.82,103.22 C47.22,89.97 58.63,72.43 72.5,60.48 C79.05,54.84 81.57,53.92 90,51.98 C124.65,44.01 135.35,44.01 170,51.98 C197.35,58.27 215.2321,79.7659 226.9621,98.2259 " fill="none" id="svg-to-pandoc" style="stroke:#181818;stroke-width:1.0;"/><polygon fill="#181818" points="230.18,103.29,228.7293,93.5486,227.4984,99.0699,221.9771,97.8391,230.18,103.29" style="stroke:#181818;stroke-width:1.0;"/></g><!--link pandoc to pdf--><g id="link_pandoc_pdf"><path d="M240.5,140.06 C240.5,157 240.5,176.66 240.5,193.68 " fill="none" id="pandoc-to-pdf" style="stroke:#181818;stroke-width:1.0;"/><polygon fill="#181818" points="240.5,199.68,244.5,190.68,240.5,194.68,236.5,190.68,240.5,199.68" style="stroke:#181818;stroke-width:1.0;"/></g><!--SRC=[ROuz3e0W38Ntdg9nroCukNg8ne8n0Xh_5kFTBO8I4hlqyRtsqKLr6xdUA6nfL7eGSGB6MZvp9iTJzsSOSjjk3Lm0YHRLBAn0Mj6BpB7ySCiPNO_-mTBp7DOXXZM0pyAoAUlqxIi2zjjWESw4cuLXUeKM1oJp1W00]--></g></svg>